<?xml version="1.0" ?><svg height="48px" version="1.1" viewBox="0 0 48 48" width="48px" xmlns="http://www.w3.org/2000/svg" xmlns:sketch="http://www.bohemiancoding.com/sketch/ns" xmlns:xlink="http://www.w3.org/1999/xlink"><title/><defs/><g fill="none" fill-rule="evenodd" id="shadow" stroke="none" stroke-width="1"><g id="wikipedia"><path d="M24,48 C37.2548347,48 48,37.2548347 48,24 C48,10.7451653 37.2548347,0 24,0 C10.7451653,0 0,10.7451653 0,24 C0,37.2548347 10.7451653,48 24,48 Z" fill="#424242"/><path d="M0.0492932644,25.5507067 C0.696317924,35.6965792 7.64755775,44.128493 17.0282823,46.9717177 L28.3984375,35.6015625 L33.6882812,20.6180984 L37.7786458,16.5277339 L31.7854156,15.7760422 L25.75065,22.3126305 L27.2660156,19.7477863 L30.1511719,16.5277339 L25.5705734,15.7760422 L21.9539062,19.7477863 L21.7117187,18.5278646 L23.4196609,16.5277339 L18.5302078,15.7760422 L14.9662766,19.7477863 L14.5441406,19.073698 L16.9302078,16.5277339 L9.9734375,15.6265625 L0.0492932644,25.5507067 Z" fill="#000000" fill-opacity="0.400000006"/><path d="M37.8261538,15.6923077 L32.1009231,15.6923077 L31.6916923,15.7665682 L31.6916923,16.3463842 C31.6916923,16.4144834 31.8870769,16.471557 31.9412308,16.5140379 C31.9929231,16.5600859 32.1329231,16.5850556 32.1907692,16.5850556 L32.7095385,16.6122953 C33.2978462,16.6414806 33.4769231,16.7760576 33.7058462,17.0030549 C33.9310769,17.2381592 33.968,17.6370259 33.7923077,18.1977092 L28.7329231,32.1194529 L28.54,32.0588122 L25.3255385,24.4385132 C25.3723077,24.3240417 25.4,24.2598339 25.4,24.2598339 L28.0316923,18.5596077 C28.3375385,17.9583892 28.6338462,17.4210542 28.7846154,17.1707086 C29.0593846,16.7141198 29.1932308,16.6278608 29.9421538,16.5879741 C30.0953846,16.5879741 30.1538462,16.5088494 30.1538462,16.3486541 L30.1538462,15.772081 L30.1153846,15.7101432 C30.1153846,15.7101432 26.9698462,15.6987933 25.5372308,15.7101432 L25.5384615,15.7701353 L25.5384615,16.3470327 C25.5384615,16.4174019 25.5018462,16.4735026 25.5523077,16.5159836 C25.6064615,16.5620316 25.6292308,16.5857042 25.6873846,16.5857042 L25.9018462,16.6145652 C26.4876923,16.6437506 26.7492308,16.8208085 26.8292308,16.9320372 C26.9692308,17.1314705 27.0341538,17.3441994 26.6956923,18.2003034 L24.6692308,22.8764476 L22.8381538,18.5388537 C22.2378462,17.1528731 22.0892308,16.7238482 22.9944615,16.6437506 L23.2378462,16.584407 C23.412,16.584407 23.3846154,16.5117679 23.3846154,16.3739481 L23.3846154,15.7675411 L23.3664615,15.717926 C23.3664615,15.717926 20.0126154,15.717926 18.4824615,15.7188988 L18.4615385,15.7785667 L18.4615385,16.3865951 C18.4615385,16.5231178 18.5895385,16.5581402 18.8264615,16.5957569 C19.6738462,16.7241725 19.6593846,16.8269699 20.4966154,18.750934 C20.6221538,19.0392206 20.9916923,19.9086202 20.9916923,19.9086202 L22.9009231,24.2510783 C22.9009231,24.2510783 23.1172308,24.8088431 23.4563077,25.6746756 L20.6821538,32.0834576 L20.5233846,32.0364368 C20.5233846,32.0364368 16.2187692,21.5235438 14.9735385,18.0060586 C14.8424615,17.6438358 14.7855385,17.3727362 14.7855385,17.205731 C14.7855385,16.8483725 15.0636923,16.6547762 15.6203077,16.6288336 L16.4664615,16.5967297 C16.6393846,16.5967297 16.9230769,16.5201992 16.9230769,16.3609768 L16.9230769,15.7840795 L16.6683077,15.7244116 C16.6683077,15.7244116 11.3941538,15.7176017 10.3292308,15.7244116 L10.1538462,15.7840795 L10.1538462,16.3911351 C10.1538462,16.5000938 10.292,16.5678687 10.5313846,16.5967297 C11.1864615,16.6385621 11.6264615,16.7585464 11.8329231,16.9608983 C12.0384615,17.1645473 12.2615385,17.6791825 12.5504615,18.4811315 C14.116,22.834291 17.4433846,30.6027867 19.0630769,35.0279367 C19.5289231,36.235238 20.1166154,36.4233215 20.8273846,34.9899958 C21.5593846,33.4178774 23.036,29.9282805 24.1129231,27.3525098 C25.1206154,29.9221192 26.4926154,33.3984205 27.1544615,34.9734574 C27.6815385,36.2339409 28.2824615,36.3584651 28.8916923,35.0110741 C30.4861538,30.9076117 35.144,18.5583106 35.144,18.5583106 C35.3452308,17.9522278 35.6264615,17.485262 35.9889231,17.1460632 C36.3483077,16.81108 36.8836923,16.6216994 37.6344615,16.5847313 C37.7864615,16.5847313 37.8461538,16.5039851 37.8461538,16.3476813 L37.8461538,15.7678654 L37.8261538,15.6923077 L37.8261538,15.6923077 Z" fill="#FFFFFF"/></g></g></svg>